<svg width="32" height="32" viewBox="0 0 32 32" fill="none" xmlns="http://www.w3.org/2000/svg">
<circle opacity="0.3" cx="16" cy="16" r="16" fill="#333333"/>
<path d="M13.5699 22.82C13.3799 22.82 13.1899 22.75 13.0399 22.6L6.96994 16.53C6.67994 16.24 6.67994 15.76 6.96994 15.47L13.0399 9.4C13.3299 9.11 13.8099 9.11 14.0999 9.4C14.3899 9.69 14.3899 10.17 14.0999 10.46L8.55994 16L14.0999 21.54C14.3899 21.83 14.3899 22.31 14.0999 22.6C13.9599 22.75 13.7599 22.82 13.5699 22.82Z" fill="white"/>
<path d="M24.5 16.75H7.67004C7.26004 16.75 6.92004 16.41 6.92004 16C6.92004 15.59 7.26004 15.25 7.67004 15.25H24.5C24.91 15.25 25.25 15.59 25.25 16C25.25 16.41 24.91 16.75 24.5 16.75Z" fill="white"/>
</svg>
