<svg width="18" height="18" viewBox="0 0 18 18" fill="none" xmlns="http://www.w3.org/2000/svg">
<g id="vuesax/outline/card-receive">
<g id="card-receive">
<path id="Vector" d="M10.875 6.9375H1.5C1.1925 6.9375 0.9375 6.6825 0.9375 6.375C0.9375 6.0675 1.1925 5.8125 1.5 5.8125H10.875C11.1825 5.8125 11.4375 6.0675 11.4375 6.375C11.4375 6.6825 11.1825 6.9375 10.875 6.9375Z" fill="#8C8C8C"/>
<path id="Vector_2" d="M6 12.9375H4.5C4.1925 12.9375 3.9375 12.6825 3.9375 12.375C3.9375 12.0675 4.1925 11.8125 4.5 11.8125H6C6.3075 11.8125 6.5625 12.0675 6.5625 12.375C6.5625 12.6825 6.3075 12.9375 6 12.9375Z" fill="#8C8C8C"/>
<path id="Vector_3" d="M10.875 12.9375H7.875C7.5675 12.9375 7.3125 12.6825 7.3125 12.375C7.3125 12.0675 7.5675 11.8125 7.875 11.8125H10.875C11.1825 11.8125 11.4375 12.0675 11.4375 12.375C11.4375 12.6825 11.1825 12.9375 10.875 12.9375Z" fill="#8C8C8C"/>
<path id="Vector_4" d="M13.17 15.9375H4.83C1.845 15.9375 0.9375 15.0375 0.9375 12.0825V5.9175C0.9375 2.9625 1.845 2.0625 4.83 2.0625H10.875C11.1825 2.0625 11.4375 2.3175 11.4375 2.625C11.4375 2.9325 11.1825 3.1875 10.875 3.1875H4.83C2.475 3.1875 2.0625 3.5925 2.0625 5.9175V12.075C2.0625 14.4 2.475 14.805 4.83 14.805H13.1625C15.5175 14.805 15.93 14.4 15.93 12.075V10.515C15.93 10.2075 16.185 9.9525 16.4925 9.9525C16.8 9.9525 17.055 10.2075 17.055 10.515V12.075C17.0625 15.0375 16.155 15.9375 13.17 15.9375Z" fill="#8C8C8C"/>
<path id="Vector_5" d="M15 7.6875C14.925 7.6875 14.8575 7.6725 14.7825 7.6425C14.5725 7.5525 14.4375 7.35 14.4375 7.125V2.625C14.4375 2.3175 14.6925 2.0625 15 2.0625C15.3075 2.0625 15.5625 2.3175 15.5625 2.625V5.7675L16.1025 5.2275C16.32 5.01 16.68 5.01 16.8975 5.2275C17.115 5.445 17.115 5.805 16.8975 6.0225L15.3975 7.5225C15.2925 7.6275 15.15 7.6875 15 7.6875Z" fill="#8C8C8C"/>
<path id="Vector_6" d="M15.0001 7.68749C14.8576 7.68749 14.7151 7.63499 14.6026 7.52249L13.1026 6.02249C12.8851 5.80499 12.8851 5.44499 13.1026 5.22749C13.3201 5.00999 13.6801 5.00999 13.8976 5.22749L15.3976 6.72749C15.6151 6.94499 15.6151 7.30499 15.3976 7.52249C15.2851 7.63499 15.1426 7.68749 15.0001 7.68749Z" fill="#8C8C8C"/>
</g>
</g>
</svg>
