<svg width="18" height="18" viewBox="0 0 18 18" fill="none" xmlns="http://www.w3.org/2000/svg">
<g id="vuesax/outline/card-send">
<g id="card-send">
<path id="Vector" d="M10.875 6.9375H1.5C1.1925 6.9375 0.9375 6.6825 0.9375 6.375C0.9375 6.0675 1.1925 5.8125 1.5 5.8125H10.875C11.1825 5.8125 11.4375 6.0675 11.4375 6.375C11.4375 6.6825 11.1825 6.9375 10.875 6.9375Z" fill="#8C8C8C"/>
<path id="Vector_2" d="M6 12.9375H4.5C4.1925 12.9375 3.9375 12.6825 3.9375 12.375C3.9375 12.0675 4.1925 11.8125 4.5 11.8125H6C6.3075 11.8125 6.5625 12.0675 6.5625 12.375C6.5625 12.6825 6.3075 12.9375 6 12.9375Z" fill="#8C8C8C"/>
<path id="Vector_3" d="M10.875 12.9375H7.875C7.5675 12.9375 7.3125 12.6825 7.3125 12.375C7.3125 12.0675 7.5675 11.8125 7.875 11.8125H10.875C11.1825 11.8125 11.4375 12.0675 11.4375 12.375C11.4375 12.6825 11.1825 12.9375 10.875 12.9375Z" fill="#8C8C8C"/>
<path id="Vector_4" d="M13.17 15.9375H4.83C1.845 15.9375 0.9375 15.0375 0.9375 12.0825V5.9175C0.9375 2.9625 1.845 2.0625 4.83 2.0625H10.875C11.1825 2.0625 11.4375 2.3175 11.4375 2.625C11.4375 2.9325 11.1825 3.1875 10.875 3.1875H4.83C2.475 3.1875 2.0625 3.5925 2.0625 5.9175V12.075C2.0625 14.4 2.475 14.805 4.83 14.805H13.1625C15.5175 14.805 15.93 14.4 15.93 12.075V10.515C15.93 10.2075 16.185 9.9525 16.4925 9.9525C16.8 9.9525 17.055 10.2075 17.055 10.515V12.075C17.0625 15.0375 16.155 15.9375 13.17 15.9375Z" fill="#8C8C8C"/>
<path id="Vector_5" d="M15 7.68748C14.6925 7.68748 14.4375 7.43248 14.4375 7.12498V2.62498C14.4375 2.39998 14.5725 2.18998 14.7825 2.10748C14.9925 2.02498 15.2325 2.06998 15.3975 2.22748L16.8975 3.72748C17.115 3.94498 17.115 4.30499 16.8975 4.52249C16.68 4.73998 16.32 4.73998 16.1025 4.52249L15.5625 3.98248V7.12498C15.5625 7.43248 15.3075 7.68748 15 7.68748Z" fill="#8C8C8C"/>
<path id="Vector_6" d="M13.5001 4.68749C13.3576 4.68749 13.2151 4.63499 13.1026 4.52249C12.8851 4.30499 12.8851 3.94499 13.1026 3.72749L14.6026 2.22749C14.8201 2.00999 15.1801 2.00999 15.3976 2.22749C15.6151 2.44499 15.6151 2.80499 15.3976 3.02249L13.8976 4.52249C13.7851 4.63499 13.6426 4.68749 13.5001 4.68749Z" fill="#8C8C8C"/>
</g>
</g>
</svg>
