<svg width="24" height="24" viewBox="0 0 24 24" fill="none" xmlns="http://www.w3.org/2000/svg">
<g id="Mask group">
<mask id="mask0_2777_26162" style="mask-type:alpha" maskUnits="userSpaceOnUse" x="0" y="0" width="24" height="24">
<rect id="Rectangle 12" width="24" height="24" fill="#D9D9D9"/>
</mask>
<g mask="url(#mask0_2777_26162)">
<g id="Group 7">
<path id="Vector" d="M23.0136 12.11V12.2029C23.0136 13.1115 22.277 13.8481 21.3684 13.8481H3.75348V17.8027C3.75348 20.0536 5.58795 21.8846 7.83885 21.8846H16.5534C18.8078 21.8846 20.6388 20.0536 20.6388 17.8027V15.2145C20.6388 14.9804 20.8281 14.7911 21.0621 14.7911C21.2961 14.7911 21.4854 14.9804 21.4854 15.2145V17.8027C21.4854 20.5182 19.2724 22.7313 16.5534 22.7313H7.83885C5.11987 22.7313 2.90682 20.5182 2.90682 17.8027V13.8363C2.05386 13.7752 1.37868 13.0715 1.37868 12.2029V12.11C1.37868 11.2048 2.11522 10.4683 3.02383 10.4683H3.53728L2.82765 9.43919C2.41465 8.84031 2.30107 8.10035 2.52135 7.4051C2.62764 7.07122 2.80425 6.77301 3.03375 6.52431L1.49225 5.4433C0.951906 5.05438 0.824565 4.30752 1.20659 3.7775C1.47159 3.38513 1.94313 3.2096 2.394 3.2922C2.34582 3.0444 2.37678 2.79316 2.48347 2.56255C2.61426 2.27345 2.85175 2.05317 3.15118 1.94303C3.45405 1.8329 3.77758 1.84323 4.06325 1.97745C4.29384 2.08072 4.47971 2.25623 4.60361 2.47306C4.6931 2.35949 4.80666 2.26312 4.934 2.18741C5.20936 2.02563 5.52944 1.98433 5.83576 2.06693C6.13862 2.13921 6.4002 2.33195 6.56197 2.60729C6.72372 2.8792 6.77192 3.19584 6.6962 3.50903V3.51248L6.23355 5.33786C6.56894 5.3778 6.89661 5.48974 7.19524 5.67391C7.46661 5.84379 7.69365 6.0634 7.87303 6.31603C8.17057 6.19234 8.46126 6.11041 8.72109 6.05781L7.98296 5.29293C7.82036 5.12456 7.82534 4.85647 7.99371 4.6939C8.1625 4.53131 8.43057 4.53668 8.59274 4.70466L9.20047 5.3344V4.62523C9.20047 4.39106 9.38995 4.20158 9.62412 4.20158C9.85826 4.20158 10.0477 4.39106 10.0477 4.62523V5.33393L10.5062 4.85723V2.68989C10.5062 1.75719 11.2634 1 12.1961 1C13.1288 1 13.886 1.75719 13.886 2.68989V10.4683H15.5005L16.02 9.08176L15.3154 7.55919C15.2178 7.34696 15.3096 7.09502 15.5223 6.99698C15.7349 6.89811 15.9864 6.99077 16.0849 7.20342L16.438 7.96639L16.963 6.56532C17.0455 6.34504 17.2899 6.23492 17.5068 6.31752C17.727 6.39667 17.8406 6.64104 17.758 6.8613L17.232 8.26431L18.0003 7.91994C18.213 7.82314 18.4637 7.91912 18.5597 8.13299C18.6556 8.34646 18.5597 8.59718 18.3462 8.69274L16.814 9.37951L16.4058 10.4683H20.5717C20.4924 10.1726 20.343 9.89479 20.1156 9.66978C20.0364 9.58719 19.9883 9.47705 19.9917 9.36002C19.9951 9.24301 20.0433 9.13287 20.1294 9.05715C20.3428 8.86096 20.5011 8.63037 20.5975 8.37913C20.9003 7.56343 20.5665 6.6617 19.8024 6.23148C19.6166 6.12821 19.5374 5.9045 19.6166 5.70488C19.7921 5.24369 19.7749 4.76528 19.5787 4.33506C19.386 3.90829 19.0349 3.58132 18.5943 3.41612C17.6823 3.07537 16.667 3.54002 16.3228 4.44865C16.2505 4.64481 16.0371 4.79282 15.8341 4.74808C15.5553 4.68956 15.2662 4.69989 14.9943 4.7756C14.7637 4.83755 14.5331 4.70678 14.4711 4.48306C14.4092 4.25591 14.54 4.02185 14.7637 3.9599C15.0562 3.8773 15.3625 3.84634 15.662 3.87041C16.2712 2.70367 17.6479 2.15642 18.8903 2.6245C19.5443 2.86542 20.0605 3.35072 20.3496 3.98399C20.5974 4.52435 20.6525 5.11977 20.5114 5.68422C21.4304 6.37257 21.8021 7.57719 21.3891 8.67856C21.2927 8.93325 21.1585 9.16728 20.9829 9.38067C21.2241 9.7081 21.3795 10.0845 21.4466 10.4762C22.3181 10.5179 23.0136 11.2315 23.0136 12.11ZM5.96653 6.16952C5.79102 6.16952 5.61549 6.20049 5.4434 6.26244L4.23189 6.71331C3.79823 6.87508 3.46783 7.21926 3.33015 7.65979C3.23306 7.96532 3.2393 8.28325 3.33644 8.57672L4.3581 8.19794C4.57777 8.11604 4.82145 8.22857 4.90253 8.44782C4.98402 8.66709 4.87191 8.91117 4.65266 8.99225L3.77233 9.31863L4.56603 10.4683H10.5062V6.91714C10.075 6.81483 9.71938 6.80624 9.62512 6.80624C9.39109 6.80624 8.68553 6.83723 8.02127 7.17107C7.36046 7.50491 6.7375 8.14165 6.66522 9.35658C6.65146 9.59063 6.45183 9.75927 6.21779 9.75583C5.98376 9.74205 5.80478 9.539 5.81854 9.30496C5.89582 8.00945 6.45629 7.21567 7.12592 6.72856C7.02154 6.59834 6.89556 6.48372 6.74782 6.39323C6.50689 6.24523 6.23844 6.16952 5.96653 6.16952ZM3.75811 5.99708C3.8176 5.96929 3.87698 5.94126 3.93935 5.91826L5.15084 5.46739C5.21325 5.44407 5.27663 5.4266 5.33992 5.40885L5.87362 3.30598C5.89771 3.21304 5.88049 3.12011 5.83576 3.04096C5.78757 2.9618 5.71529 2.90672 5.6258 2.88607C5.52944 2.86198 5.43995 2.87232 5.3608 2.9205C5.28162 2.96867 5.22312 3.04096 5.20247 3.13045L5.03038 3.80159C4.98564 3.98055 4.82731 4.11134 4.64491 4.12167C4.44873 4.12854 4.28697 4.01842 4.225 3.84289L3.88772 2.94115C3.85675 2.85167 3.79136 2.78283 3.71218 2.74497C3.62958 2.70712 3.53322 2.70712 3.44718 2.73808C3.35769 2.77249 3.28885 2.83446 3.251 2.91706C3.21312 2.99966 3.2097 3.09602 3.24066 3.18206L3.57453 4.08382C3.63992 4.25933 3.58484 4.45552 3.43685 4.5691C3.28886 4.68268 3.08236 4.68613 2.93092 4.57599L2.37336 4.17674C2.31828 4.13888 2.24944 4.11823 2.17717 4.11823C2.15652 4.11823 2.13587 4.11823 2.11522 4.12512C2.02918 4.13888 1.95001 4.18707 1.90181 4.26278C1.78481 4.42455 1.82266 4.63794 1.98099 4.7515L3.75811 5.99708ZM10.7404 13.0014C10.5954 12.7522 10.5061 12.4665 10.5061 12.1579L10.5062 11.3149H3.02383C2.5833 11.3149 2.22534 11.6729 2.22534 12.11V12.2029C2.22534 12.6435 2.5833 13.0014 3.02383 13.0014H10.7404ZM13.0392 12.1579C13.0392 11.6933 12.6611 11.3152 12.1961 11.3152C11.7315 11.3152 11.3534 11.6933 11.3534 12.1579C11.3534 12.6225 11.7315 13.0006 12.1961 13.0006C12.6611 13.0006 13.0392 12.6225 13.0392 12.1579ZM13.0394 2.68989C13.0394 2.22526 12.6608 1.84668 12.1961 1.84668C11.7315 1.84668 11.3529 2.22527 11.3529 2.68989V10.7021C11.6021 10.5571 11.8877 10.4679 12.1961 10.4679C12.5046 10.4679 12.7902 10.5571 13.0394 10.7019V2.68989ZM22.1669 12.11C22.1669 11.6729 21.809 11.3149 21.3684 11.3149H13.886V12.1533L13.8865 12.1579C13.8865 12.4665 13.7973 12.7522 13.6523 13.0014H21.3684C21.809 13.0014 22.1669 12.6435 22.1669 12.2029V12.11Z" fill="#999999"/>
</g>
</g>
</g>
</svg>
