<svg width="23" height="22" viewBox="0 0 23 22" fill="none" xmlns="http://www.w3.org/2000/svg">
<g id="Group 7">
<g id="Group 29482">
<path id="Vector" d="M4.43244 1.59867L3.84737 3.82261C3.7766 3.8408 3.71054 3.85899 3.63977 3.88628L2.30921 4.36381C2.23843 4.38655 2.1771 4.41839 2.11104 4.44567L0.162387 3.12677C-0.0121893 3.00853 -0.0546539 2.78113 0.0774581 2.60831C0.129359 2.52645 0.219007 2.47642 0.313372 2.46278C0.336964 2.45368 0.360555 2.45368 0.379429 2.45368C0.459639 2.45368 0.535132 2.47642 0.59647 2.51735L1.20985 2.94031C1.37499 3.05855 1.60146 3.05401 1.76661 2.93121C1.92703 2.81297 1.98836 2.60376 1.91759 2.4173L1.54956 1.46223C1.51654 1.37127 1.52125 1.27122 1.559 1.18026C1.59675 1.0893 1.67696 1.02563 1.77604 0.989247C1.87041 0.957411 1.97421 0.957411 2.06858 0.998343C2.1535 1.03927 2.229 1.11204 2.26203 1.20755L2.63005 2.16261C2.69611 2.34908 2.8754 2.46278 3.09244 2.45823C3.29061 2.44913 3.46519 2.30815 3.51709 2.12168L3.69638 1.41675C3.71998 1.32125 3.78131 1.24393 3.87096 1.1939C3.95589 1.14388 4.05497 1.13023 4.1635 1.15752C4.26258 1.18026 4.34279 1.23938 4.39469 1.32125C4.44187 1.40311 4.46075 1.50316 4.43244 1.59867Z" fill="#D46B08"/>
<path id="Vector_2" d="M4.35283 9.4713H2.98244L2.10822 8.18107L3.07695 7.81381C3.31795 7.722 3.44081 7.44656 3.35102 7.20011C3.26124 6.95366 2.99189 6.82802 2.75089 6.91983L1.63094 7.34508C1.52226 7.01648 1.51753 6.65889 1.62149 6.31579C1.77271 5.8229 2.13657 5.43631 2.61385 5.25268L3.94644 4.74529C4.13546 4.67764 4.3292 4.63898 4.52295 4.63898C4.82065 4.63898 5.11836 4.72596 5.38299 4.89026C5.54366 4.99174 5.68542 5.12221 5.79883 5.26718C4.64581 6.01619 4.16854 7.18078 4.35283 9.4713Z" fill="#D46B08"/>
<path id="Vector_3" d="M9.47144 5.53619V9.47132H5.28477C5.00824 7.4012 5.62921 6.3566 6.66739 5.81761C7.40479 5.43125 8.2101 5.41217 8.47692 5.41217C8.58365 5.41217 8.98631 5.42171 9.47144 5.53619Z" fill="#D46B08"/>
<path id="Vector_4" d="M9.66454 12.1774H1.25849C0.780288 12.1774 0.386475 11.7692 0.386475 11.2626V11.1544C0.386475 10.6527 0.7756 10.2445 1.25849 10.2445H9.41137V11.2085C9.41137 11.5676 9.50514 11.8922 9.66454 12.1774Z" fill="#D46B08"/>
<path id="Vector_5" d="M12.1776 11.211C12.1776 11.7435 11.7436 12.1774 11.2111 12.1774C10.6786 12.1774 10.2446 11.7435 10.2446 11.211C10.2446 10.6784 10.6786 10.2445 11.2111 10.2445C11.7436 10.2445 12.1776 10.6784 12.1776 11.211Z" fill="#D46B08"/>
<path id="Vector_6" d="M12.1776 0.919549V9.65996C11.8916 9.50044 11.5661 9.40661 11.2111 9.40661C10.8561 9.40661 10.5306 9.50513 10.2446 9.66465V0.919549C10.2446 0.412859 10.6786 0 11.2111 0C11.7436 0 12.1776 0.412859 12.1776 0.919549Z" fill="#D46B08"/>
<path id="Vector_7" d="M19.7084 8.23927C19.7038 8.36772 19.7547 8.49141 19.8427 8.58179C20.088 8.82917 20.25 9.13839 20.3334 9.46664H15.8522L16.292 8.26306L17.94 7.5019C18.1715 7.39724 18.2733 7.12132 18.1715 6.88346C18.0696 6.6456 17.8011 6.54094 17.5697 6.6456L16.741 7.02618L17.3058 5.47532C17.3937 5.2327 17.2734 4.96154 17.0373 4.87591C16.8058 4.78552 16.542 4.90445 16.454 5.15183L15.8892 6.70269L15.5096 5.86065C15.4031 5.62755 15.1346 5.52289 14.9032 5.63231C14.6763 5.74172 14.5745 6.01764 14.681 6.25551L15.4402 7.93957L14.88 9.4714H13.144V3.46776C13.1857 3.45825 13.2274 3.43922 13.2737 3.41068C13.5236 3.24893 14.4078 2.93971 15.2411 3.14427C15.4587 3.1966 15.6902 3.0301 15.7689 2.81126C16.1392 1.80749 17.2317 1.2937 18.2131 1.66953C18.6853 1.8503 19.0649 2.21185 19.2732 2.68758C19.4862 3.1633 19.5047 3.69135 19.3149 4.20038C19.2316 4.41921 19.3149 4.66659 19.514 4.78076C20.338 5.25648 20.6944 6.25551 20.3704 7.15462C20.2685 7.43054 20.0973 7.68743 19.8658 7.90627C19.764 7.98714 19.7084 8.10607 19.7084 8.23927Z" fill="#D46B08"/>
<path id="Vector_8" d="M20.4891 13.1439V17.4232C20.4891 19.8585 18.496 21.8421 16.0445 21.8421H6.57073C4.12391 21.8421 2.12622 19.8585 2.12622 17.4232V13.1439H20.4891Z" fill="#D46B08"/>
<path id="Vector_9" d="M22.0354 11.1518V11.2603C22.0354 11.7632 21.6463 12.1774 21.1634 12.1774H12.7573C12.9167 11.8914 13.0105 11.566 13.0105 11.211V11.2061V10.2446H21.1634C21.6463 10.2396 22.0354 10.6489 22.0354 11.1518Z" fill="#D46B08"/>
</g>
</g>
</svg>
