<svg width="32" height="32" viewBox="0 0 32 32" fill="none" xmlns="http://www.w3.org/2000/svg">
<g id="vuesax/bold/gallery-add">
<g id="gallery-add">
<path id="Vector" d="M27.9602 1.33334H24.0402C22.8802 1.33334 22.0268 1.81334 21.6402 2.66668C21.4268 3.05334 21.3335 3.50668 21.3335 4.04001V7.96001C21.3335 9.65334 22.3468 10.6667 24.0402 10.6667H27.9602C28.4935 10.6667 28.9468 10.5733 29.3335 10.36C30.1868 9.97334 30.6668 9.12001 30.6668 7.96001V4.04001C30.6668 2.34668 29.6535 1.33334 27.9602 1.33334ZM29.2135 6.57334C29.0802 6.70668 28.8802 6.80001 28.6668 6.81334H26.7868V7.49334L26.8002 8.66668C26.7868 8.89334 26.7068 9.08001 26.5468 9.24001C26.4135 9.37334 26.2135 9.46668 26.0002 9.46668C25.5602 9.46668 25.2002 9.10668 25.2002 8.66668V6.80001L23.3335 6.81334C22.8935 6.81334 22.5335 6.44001 22.5335 6.00001C22.5335 5.56001 22.8935 5.20001 23.3335 5.20001L24.5068 5.21334H25.2002V3.34668C25.2002 2.90668 25.5602 2.53334 26.0002 2.53334C26.4402 2.53334 26.8002 2.90668 26.8002 3.34668L26.7868 4.29334V5.20001H28.6668C29.1068 5.20001 29.4668 5.56001 29.4668 6.00001C29.4535 6.22668 29.3602 6.41334 29.2135 6.57334Z" fill="#999999"/>
<path id="Vector_2" d="M12 13.84C13.7526 13.84 15.1733 12.4193 15.1733 10.6667C15.1733 8.9141 13.7526 7.49335 12 7.49335C10.2474 7.49335 8.82666 8.9141 8.82666 10.6667C8.82666 12.4193 10.2474 13.84 12 13.84Z" fill="#999999"/>
<path id="Vector_3" d="M27.9598 10.6667H27.3332V16.8133L27.1598 16.6667C26.1198 15.7733 24.4398 15.7733 23.3998 16.6667L17.8532 21.4267C16.8132 22.32 15.1332 22.32 14.0932 21.4267L13.6398 21.0533C12.6932 20.2267 11.1865 20.1467 10.1198 20.8667L5.13317 24.2133C4.83984 23.4667 4.6665 22.6 4.6665 21.5867V10.4133C4.6665 6.65332 6.65317 4.66666 10.4132 4.66666H21.3332V4.03999C21.3332 3.50666 21.4265 3.05332 21.6398 2.66666H10.4132C5.55984 2.66666 2.6665 5.55999 2.6665 10.4133V21.5867C2.6665 23.04 2.91984 24.3067 3.41317 25.3733C4.55984 27.9067 7.01317 29.3333 10.4132 29.3333H21.5865C26.4398 29.3333 29.3332 26.44 29.3332 21.5867V10.36C28.9465 10.5733 28.4932 10.6667 27.9598 10.6667Z" fill="#999999"/>
</g>
</g>
</svg>
