<svg width="24" height="24" viewBox="0 0 24 24" fill="none" xmlns="http://www.w3.org/2000/svg">
<g id="Menubar_icon_home_defauft">
<mask id="mask0_3228_11882" style="mask-type:alpha" maskUnits="userSpaceOnUse" x="0" y="0" width="24" height="24">
<rect id="Rectangle 9" width="24" height="24" fill="#D9D9D9"/>
</mask>
<g mask="url(#mask0_3228_11882)">
<path id="Vector" d="M21.4629 10.699C21.4623 10.6986 21.4618 10.698 21.4614 10.6975L13.3021 2.5394C12.9543 2.1915 12.492 2 12.0001 2C11.5083 2 11.0459 2.1915 10.698 2.5394L2.54298 10.6934C2.54024 10.6961 2.53734 10.699 2.53474 10.7018C1.82056 11.42 1.82178 12.5853 2.53825 13.3017C2.86559 13.6292 3.29776 13.8187 3.75999 13.8387C3.77892 13.8405 3.79784 13.8414 3.81692 13.8414H4.14196V19.8452C4.14196 21.0334 5.10886 22 6.29718 22H9.48933C9.813 22 10.0753 21.7375 10.0753 21.4141V16.707C10.0753 16.1649 10.5165 15.7239 11.0587 15.7239H12.9415C13.4837 15.7239 13.9247 16.1649 13.9247 16.707V21.4141C13.9247 21.7375 14.1871 22 14.5107 22H17.7029C18.8914 22 19.8581 21.0334 19.8581 19.8452V13.8414H20.1597C20.6513 13.8414 21.1137 13.6499 21.4618 13.3019C22.1791 12.5844 22.1794 11.417 21.4629 10.699ZM20.633 12.4733C20.5065 12.5998 20.3384 12.6696 20.1597 12.6696H19.2721C18.9484 12.6696 18.6861 12.9319 18.6861 13.2555V19.8452C18.6861 20.3871 18.2451 20.8281 17.7029 20.8281H15.0967V16.707C15.0967 15.5188 14.13 14.552 12.9415 14.552H11.0587C9.87023 14.552 8.90334 15.5188 8.90334 16.707V20.8281H6.29718C5.75513 20.8281 5.31395 20.3871 5.31395 19.8452V13.2555C5.31395 12.9319 5.05163 12.6696 4.72796 12.6696H3.85568C3.84652 12.6689 3.83752 12.6685 3.82821 12.6683C3.65363 12.6653 3.48989 12.596 3.36719 12.4732C3.10624 12.2122 3.10624 11.7876 3.36719 11.5265C3.36735 11.5265 3.36735 11.5264 3.3675 11.5262L3.36796 11.5258L11.5269 3.36795C11.6532 3.24146 11.8213 3.17188 12.0001 3.17188C12.1788 3.17188 12.3468 3.24146 12.4733 3.36795L20.6304 11.5241C20.6317 11.5253 20.633 11.5265 20.6343 11.5277C20.8938 11.7891 20.8934 12.2129 20.633 12.4733Z" fill="#999999"/>
</g>
</g>
</svg>
