<svg width="10" height="15" viewBox="0 0 10 15" fill="none" xmlns="http://www.w3.org/2000/svg">
<g id="location">
<mask id="mask0_4762_2583" style="mask-type:alpha" maskUnits="userSpaceOnUse" x="0" y="0" width="10" height="15">
<rect id="Rectangle 9016" width="10" height="15" fill="#D9D9D9"/>
</mask>
<g mask="url(#mask0_4762_2583)">
<g id="Group 29480">
<path id="Vector" d="M4.99826 9.36717C3.86283 9.36717 2.9353 8.44497 2.9353 7.30421C2.9353 6.16345 3.86283 5.24658 4.99826 5.24658C6.13369 5.24658 7.06122 6.16878 7.06122 7.30954C7.06122 8.4503 6.13369 9.36717 4.99826 9.36717ZM4.99826 6.04618C4.30528 6.04618 3.7349 6.61123 3.7349 7.30954C3.7349 8.00786 4.29995 8.5729 4.99826 8.5729C5.69658 8.5729 6.26162 8.00786 6.26162 7.30954C6.26162 6.61123 5.69125 6.04618 4.99826 6.04618Z" fill="#999999"/>
<path id="Vector_2" d="M4.99835 13.1128C4.20942 13.1128 3.41515 12.8143 2.7968 12.2226C1.22426 10.7087 -0.513532 8.29392 0.142137 5.4207C0.733838 2.81402 3.01002 1.64661 4.99835 1.64661C4.99835 1.64661 4.99835 1.64661 5.00368 1.64661C6.99201 1.64661 9.2682 2.81402 9.8599 5.42603C10.5102 8.29925 8.77245 10.7087 7.19991 12.2226C6.58155 12.8143 5.78729 13.1128 4.99835 13.1128ZM4.99835 2.4462C3.44714 2.4462 1.45348 3.27245 0.925741 5.59661C0.350032 8.10735 1.9279 10.2716 3.35651 11.6416C4.27872 12.5318 5.72332 12.5318 6.64552 11.6416C8.0688 10.2716 9.64667 8.10735 9.08163 5.59661C8.54856 3.27245 6.54957 2.4462 4.99835 2.4462Z" fill="#999999"/>
</g>
</g>
</g>
</svg>
