<svg width="20" height="20" viewBox="0 0 20 20" fill="none" xmlns="http://www.w3.org/2000/svg">
<g id="vuesax/outline/more">
<g id="more">
<path id="Vector" d="M4.16667 12.2916C2.9 12.2916 1.875 11.2666 1.875 9.99998C1.875 8.73331 2.9 7.70831 4.16667 7.70831C5.43333 7.70831 6.45833 8.73331 6.45833 9.99998C6.45833 11.2666 5.43333 12.2916 4.16667 12.2916ZM4.16667 8.95831C3.59167 8.95831 3.125 9.42498 3.125 9.99998C3.125 10.575 3.59167 11.0416 4.16667 11.0416C4.74167 11.0416 5.20833 10.575 5.20833 9.99998C5.20833 9.42498 4.74167 8.95831 4.16667 8.95831Z" fill="#333333"/>
<path id="Vector_2" d="M15.8332 12.2916C14.5665 12.2916 13.5415 11.2666 13.5415 9.99998C13.5415 8.73331 14.5665 7.70831 15.8332 7.70831C17.0998 7.70831 18.1248 8.73331 18.1248 9.99998C18.1248 11.2666 17.0998 12.2916 15.8332 12.2916ZM15.8332 8.95831C15.2582 8.95831 14.7915 9.42498 14.7915 9.99998C14.7915 10.575 15.2582 11.0416 15.8332 11.0416C16.4082 11.0416 16.8748 10.575 16.8748 9.99998C16.8748 9.42498 16.4082 8.95831 15.8332 8.95831Z" fill="#333333"/>
<path id="Vector_3" d="M10.0002 12.2916C8.7335 12.2916 7.7085 11.2666 7.7085 9.99998C7.7085 8.73331 8.7335 7.70831 10.0002 7.70831C11.2668 7.70831 12.2918 8.73331 12.2918 9.99998C12.2918 11.2666 11.2668 12.2916 10.0002 12.2916ZM10.0002 8.95831C9.42516 8.95831 8.9585 9.42498 8.9585 9.99998C8.9585 10.575 9.42516 11.0416 10.0002 11.0416C10.5752 11.0416 11.0418 10.575 11.0418 9.99998C11.0418 9.42498 10.5752 8.95831 10.0002 8.95831Z" fill="#333333"/>
</g>
</g>
</svg>
