<svg width="32" height="32" viewBox="0 0 32 32" fill="none" xmlns="http://www.w3.org/2000/svg">
<circle opacity="0.3" cx="16" cy="16" r="16" fill="#333333"/>
<mask id="mask0_6313_3647" style="mask-type:alpha" maskUnits="userSpaceOnUse" x="4" y="4" width="24" height="24">
<path d="M4 4H28V28H4V4Z" fill="#D9D9D9"/>
</mask>
<g mask="url(#mask0_6313_3647)">
<path fill-rule="evenodd" clip-rule="evenodd" d="M19.6643 7C19.3755 7 19.0624 7.11182 18.8227 7.37929C18.5831 7.64664 18.4271 8.05758 18.4271 8.63802V10.0841C15.1511 10.2586 12.0957 11.6373 9.7593 14.0096C7.25467 16.5526 5.87528 19.9342 5.875 23.5299C5.87495 23.8385 6.06945 24.1142 6.36029 24.2127C6.43435 24.2378 6.51044 24.25 6.58586 24.25C6.80587 24.25 7.01827 24.1463 7.1549 23.9617C9.8727 20.2882 13.95 18.1042 18.4271 17.8946V19.3051C18.4271 19.8856 18.583 20.2965 18.8227 20.5639C19.0624 20.8313 19.3755 20.9432 19.6643 20.9432C20.0835 20.9432 20.4925 20.7272 20.8795 20.3343L25.4067 15.7371C25.8701 15.2667 26.125 14.6392 26.125 13.9716C26.125 13.304 25.8701 12.6766 25.4068 12.2061L20.8795 7.60894C20.4925 7.21601 20.0835 7 19.6643 7ZM19.8489 8.63802C19.8489 8.62579 19.8491 8.61395 19.8493 8.60248C19.8569 8.60994 19.8647 8.6177 19.8727 8.62578L24.4 13.223C24.5952 13.4211 24.7031 13.6864 24.7031 13.9716C24.7031 14.2568 24.5952 14.5221 24.4 14.7203L19.8727 19.3175C19.8647 19.3255 19.8569 19.3333 19.8493 19.3408C19.8491 19.3293 19.8489 19.3174 19.8489 19.3052V17.1581C19.8489 16.7623 19.5324 16.4381 19.138 16.4381C16.5147 16.4381 14.0072 17.0486 11.6866 18.2523C10.1394 19.0549 8.71589 20.1152 7.48809 21.3716C8.49299 15.7664 13.3363 11.5051 19.138 11.5051C19.5324 11.5051 19.8489 11.181 19.8489 10.7852V8.63802Z" fill="white"/>
</g>
</svg>
