<svg width="24" height="24" viewBox="0 0 24 24" fill="none" xmlns="http://www.w3.org/2000/svg">
<mask id="mask0_6313_3686" style="mask-type:alpha" maskUnits="userSpaceOnUse" x="0" y="0" width="24" height="24">
<rect width="24" height="24" fill="#5B8C00"/>
</mask>
<g mask="url(#mask0_6313_3686)">
<path d="M21.1783 6.27725H5.54071L5.30826 3.73445C5.27025 3.31862 4.91534 3 4.49018 3H2.82137C2.36774 3 2 3.3611 2 3.80654C2 4.25198 2.36774 4.61309 2.82137 4.61309H3.73926C4.24088 10.1007 2.94445 -4.08279 4.68395 14.9479C4.75099 15.6928 5.16085 16.5011 5.86691 17.0503C4.59391 18.6466 5.75704 21 7.82778 21C9.54647 21 10.7587 19.3168 10.1693 17.7226H14.6647C14.0761 19.3147 15.2857 21 17.0063 21C18.3794 21 19.4964 19.9031 19.4964 18.5548C19.4964 17.2064 18.3794 16.1095 17.0063 16.1095H7.83334C7.20941 16.1095 6.66571 15.7399 6.43103 15.2013L19.5575 14.4438C19.9159 14.4231 20.2191 14.1763 20.3062 13.8343L21.9751 7.2794C22.1045 6.77113 21.7127 6.27725 21.1783 6.27725ZM7.82778 19.3869C7.36054 19.3869 6.98037 19.0136 6.98037 18.5548C6.98037 18.0959 7.36054 17.7226 7.82778 17.7226C8.29506 17.7226 8.67524 18.0959 8.67524 18.5548C8.67524 19.0136 8.29506 19.3869 7.82778 19.3869ZM17.0062 19.3869C16.5389 19.3869 16.1588 19.0136 16.1588 18.5548C16.1588 18.0959 16.5389 17.7226 17.0062 17.7226C17.4735 17.7226 17.8537 18.0959 17.8537 18.5548C17.8537 19.0136 17.4735 19.3869 17.0062 19.3869ZM18.8588 12.8683L6.20993 13.5982L5.68816 7.8903H20.1263L18.8588 12.8683Z" fill="#5B8C00"/>
</g>
</svg>
