<svg width="32" height="32" viewBox="0 0 32 32" fill="none" xmlns="http://www.w3.org/2000/svg">
<circle opacity="0.3" cx="16" cy="16" r="16" fill="#333333"/>
<mask id="mask0_6313_3676" style="mask-type:alpha" maskUnits="userSpaceOnUse" x="4" y="4" width="24" height="24">
<rect x="4" y="4" width="24" height="24" fill="#D9D9D9"/>
</mask>
<g mask="url(#mask0_6313_3676)">
<path d="M25.1783 10.2773H9.54071L9.30826 7.73445C9.27025 7.31862 8.91534 7 8.49018 7H6.82137C6.36774 7 6 7.3611 6 7.80654C6 8.25198 6.36774 8.61309 6.82137 8.61309H7.73926C8.24088 14.1007 6.94445 -0.0827904 8.68395 18.9479C8.75099 19.6928 9.16085 20.5011 9.86691 21.0503C8.59391 22.6466 9.75704 25 11.8278 25C13.5465 25 14.7587 23.3168 14.1693 21.7226H18.6647C18.0761 23.3147 19.2857 25 21.0063 25C22.3794 25 23.4964 23.9031 23.4964 22.5548C23.4964 21.2064 22.3794 20.1095 21.0063 20.1095H11.8333C11.2094 20.1095 10.6657 19.7399 10.431 19.2013L23.5575 18.4438C23.9159 18.4231 24.2191 18.1763 24.3062 17.8343L25.9751 11.2794C26.1045 10.7711 25.7127 10.2773 25.1783 10.2773ZM11.8278 23.3869C11.3605 23.3869 10.9804 23.0136 10.9804 22.5548C10.9804 22.0959 11.3605 21.7226 11.8278 21.7226C12.2951 21.7226 12.6752 22.0959 12.6752 22.5548C12.6752 23.0136 12.2951 23.3869 11.8278 23.3869ZM21.0062 23.3869C20.5389 23.3869 20.1588 23.0136 20.1588 22.5548C20.1588 22.0959 20.5389 21.7226 21.0062 21.7226C21.4735 21.7226 21.8537 22.0959 21.8537 22.5548C21.8537 23.0136 21.4735 23.3869 21.0062 23.3869ZM22.8588 16.8683L10.2099 17.5982L9.68816 11.8903H24.1263L22.8588 16.8683Z" fill="white"/>
</g>
</svg>
